<svg width="733" height="52" viewBox="0 0 733 52" fill="none" xmlns="http://www.w3.org/2000/svg">
<path d="M16.2 51.0069C11.25 51.0069 7.325 49.7069 4.425 47.1069C1.525 44.4569 0.0750001 40.9069 0.0750001 36.4569V14.5569C0.0750001 10.1069 1.525 6.58193 4.425 3.98193C7.325 1.33193 11.25 0.00693041 16.2 0.00693041C21.15 0.00693041 25.075 1.33193 27.975 3.98193C30.875 6.58193 32.325 10.1069 32.325 14.5569V36.4569C32.325 40.9069 30.875 44.4569 27.975 47.1069C25.075 49.7069 21.15 51.0069 16.2 51.0069ZM16.2 41.8569C18.15 41.8569 19.65 41.3319 20.7 40.2819C21.8 39.2319 22.35 37.7069 22.35 35.7069V15.3819C22.35 13.3819 21.825 11.8569 20.775 10.8069C19.725 9.70693 18.2 9.15693 16.2 9.15693C14.25 9.15693 12.75 9.70693 11.7 10.8069C10.65 11.8569 10.125 13.3819 10.125 15.3819V35.7069C10.125 37.7069 10.65 39.2319 11.7 40.2819C12.75 41.3319 14.25 41.8569 16.2 41.8569ZM32.7891 10.0569V0.906932H61.5891V10.0569H52.2141V50.1069H42.1641V10.0569H32.7891ZM94.9863 0.906932V50.1069H84.9363V10.1319H73.8363V50.1069H63.7863V0.906932H94.9863ZM115.679 0.906932C120.629 0.906932 124.404 2.15693 127.004 4.65693C129.604 7.10693 130.904 10.7069 130.904 15.4569V16.9569C130.904 21.7569 129.604 25.3819 127.004 27.8319C124.454 30.2819 120.679 31.5069 115.679 31.5069H109.754V50.1069H99.7043V0.906932H115.679ZM114.929 22.3569C116.879 22.3569 118.354 21.9319 119.354 21.0819C120.354 20.2319 120.854 18.8569 120.854 16.9569V15.4569C120.854 11.8569 118.879 10.0569 114.929 10.0569H109.754V22.3569H114.929ZM162.622 48.6069V50.1069H152.272L150.472 41.4819H139.147L137.347 50.1069H127.072V48.6069L138.922 0.906932H150.847L162.622 48.6069ZM148.672 32.8569L144.847 14.7069L141.022 32.8569H148.672ZM189.698 25.1319C191.698 26.1319 193.223 27.5319 194.273 29.3319C195.373 31.1319 195.923 33.2819 195.923 35.7819V37.2819C195.923 41.2819 194.623 44.4319 192.023 46.7319C189.473 48.9819 185.948 50.1069 181.448 50.1069H164.948V0.906932H180.623C185.123 0.906932 188.623 2.00693 191.123 4.20693C193.673 6.40693 194.948 9.48193 194.948 13.4319V14.9319C194.948 17.2319 194.498 19.2569 193.598 21.0069C192.698 22.7569 191.398 24.1319 189.698 25.1319ZM174.998 9.90693V20.9319H179.498C183.098 20.9319 184.898 19.2819 184.898 15.9819V14.6319C184.898 11.4819 183.073 9.90693 179.423 9.90693H174.998ZM185.798 34.8069C185.798 33.2069 185.323 31.9819 184.373 31.1319C183.423 30.2319 182.073 29.7819 180.323 29.7819H174.998V41.1069H180.248C183.948 41.1069 185.798 39.4569 185.798 36.1569V34.8069ZM209.153 0.906932V29.7069L220.403 0.906932H230.528V50.1069H220.703V21.3069L209.528 50.1069H199.328V0.906932H209.153ZM232.696 10.0569V0.906932H261.496V10.0569H252.121V50.1069H242.071V10.0569H232.696ZM273.744 0.906932V19.1319H279.669C284.669 19.1319 288.444 20.3569 290.994 22.8069C293.594 25.2069 294.894 28.7819 294.894 33.5319V35.7069C294.894 40.4569 293.619 44.0569 291.069 46.5069C288.519 48.9069 284.719 50.1069 279.669 50.1069H263.694V0.906932H273.744ZM278.919 41.1069C280.919 41.1069 282.394 40.6569 283.344 39.7569C284.344 38.8569 284.844 37.4819 284.844 35.6319V33.4569C284.844 29.9069 282.869 28.1319 278.919 28.1319H273.744V41.1069H278.919ZM326.822 0.906932C331.772 0.906932 335.547 2.15693 338.147 4.65693C340.747 7.10693 342.047 10.7069 342.047 15.4569V16.9569C342.047 21.7569 340.747 25.3819 338.147 27.8319C335.597 30.2819 331.822 31.5069 326.822 31.5069H320.897V50.1069H310.847V0.906932H326.822ZM326.072 22.3569C328.022 22.3569 329.497 21.9319 330.497 21.0819C331.497 20.2319 331.997 18.8569 331.997 16.9569V15.4569C331.997 11.8569 330.022 10.0569 326.072 10.0569H320.897V22.3569H326.072ZM372.079 0.906932V10.0569H355.204V21.0069H370.729V30.0819H355.204V40.9569H372.079V50.1069H345.154V0.906932H372.079ZM400.707 25.2819C402.507 26.3319 403.907 27.6819 404.907 29.3319C405.907 30.9819 406.407 32.8819 406.407 35.0319V37.5819C406.407 40.2319 405.732 42.5819 404.382 44.6319C403.082 46.6819 401.232 48.2569 398.832 49.3569C396.432 50.4569 393.657 51.0069 390.507 51.0069C385.257 51.0069 381.282 49.7069 378.582 47.1069C375.882 44.4569 374.532 40.6069 374.532 35.5569V33.2319H384.582V35.6319C384.582 37.7819 385.082 39.3569 386.082 40.3569C387.082 41.3569 388.657 41.8569 390.807 41.8569C392.507 41.8569 393.857 41.3569 394.857 40.3569C395.907 39.3569 396.432 38.0319 396.432 36.3819V34.8819C396.432 31.5819 394.532 29.9319 390.732 29.9319H386.457V21.0069H391.032C392.532 21.0069 393.707 20.5819 394.557 19.7319C395.407 18.8319 395.832 17.6069 395.832 16.0569V14.6319C395.832 12.9319 395.357 11.6069 394.407 10.6569C393.457 9.65693 392.157 9.15693 390.507 9.15693C388.707 9.15693 387.307 9.70693 386.307 10.8069C385.357 11.8569 384.882 13.4069 384.882 15.4569V17.7819H374.832V15.4569C374.832 10.5569 376.182 6.75693 378.882 4.05693C381.582 1.35693 385.432 0.00693041 390.432 0.00693041C393.432 0.00693041 396.107 0.58193 398.457 1.73193C400.807 2.83193 402.632 4.40693 403.932 6.45693C405.232 8.50693 405.882 10.8569 405.882 13.5069V16.0569C405.882 18.0069 405.432 19.7819 404.532 21.3819C403.632 22.9319 402.357 24.2319 400.707 25.2819ZM439.84 0.906932V2.40693L428.14 41.5569C426.44 47.2569 422.69 50.1069 416.89 50.1069H409.915V40.9569H415.54C416.29 40.9569 416.89 40.8569 417.34 40.6569C417.79 40.4069 418.19 40.0319 418.54 39.5319L406.165 2.40693V0.906932H415.99L423.49 26.4819L430.09 0.906932H439.84ZM470.65 50.1069H460.6V10.1319H451.75L451.375 35.6319C451.275 40.5819 450.2 44.2319 448.15 46.5819C446.1 48.9319 442.95 50.1069 438.7 50.1069H435.475V40.9569H437.275C438.925 40.9569 440.125 40.4569 440.875 39.4569C441.675 38.4069 442.1 36.7819 442.15 34.5819L442.45 10.1319H442.375V0.906932H470.65V50.1069ZM485.399 0.906932V19.1319H491.324C496.324 19.1319 500.099 20.3569 502.649 22.8069C505.249 25.2069 506.549 28.7819 506.549 33.5319V35.7069C506.549 40.4569 505.274 44.0569 502.724 46.5069C500.174 48.9069 496.374 50.1069 491.324 50.1069H475.349V0.906932H485.399ZM490.574 41.1069C492.574 41.1069 494.049 40.6569 494.999 39.7569C495.999 38.8569 496.499 37.4819 496.499 35.6319V33.4569C496.499 29.9069 494.524 28.1319 490.574 28.1319H485.399V41.1069H490.574ZM502.491 10.0569V0.906932H531.291V10.0569H521.916V50.1069H511.866V10.0569H502.491ZM562.612 48.6069V50.1069H552.262L550.462 41.4819H539.137L537.337 50.1069H527.062V48.6069L538.912 0.906932H550.837L562.612 48.6069ZM548.662 32.8569L544.837 14.7069L541.012 32.8569H548.662ZM558.287 10.0569V0.906932H587.087V10.0569H577.712V50.1069H567.662V10.0569H558.287ZM599.409 0.906932V19.1319H604.959C609.909 19.1319 613.634 20.3319 616.134 22.7319C618.634 25.1319 619.884 28.7319 619.884 33.5319V35.7069C619.884 45.3069 614.909 50.1069 604.959 50.1069H589.359V0.906932H599.409ZM632.859 0.906932V50.1069H622.809V0.906932H632.859ZM604.134 41.1069C606.134 41.1069 607.609 40.6569 608.559 39.7569C609.559 38.8569 610.059 37.4819 610.059 35.6319V33.4569C610.059 29.9069 608.084 28.1319 604.134 28.1319H599.409V41.1069H604.134ZM732.564 27.0819V28.8819L712.389 49.0569H700.389V47.1819L714.339 33.3069H653.889V22.7319H714.339L700.389 8.78193V6.90693H712.389L732.564 27.0819Z" fill="white"/>
</svg>
