<svg width="725" height="81" viewBox="0 0 725 81" fill="none" xmlns="http://www.w3.org/2000/svg">
<path d="M17.56 70.96C12.2267 70.96 8.01333 69.5733 4.92 66.8C1.82667 64.0267 0.28 60.24 0.28 55.44V32.08C0.28 27.3333 1.82667 23.5733 4.92 20.8C8.01333 17.9733 12.2267 16.56 17.56 16.56C23.2667 16.56 27.5067 18.0267 30.28 20.96C33.1067 23.84 34.52 28.24 34.52 34.16V39.28H23.8V33.84C23.8 31.2267 23.2933 29.3333 22.28 28.16C21.2667 26.9333 19.6667 26.32 17.48 26.32C15.3467 26.32 13.72 26.88 12.6 28C11.5333 29.12 11 30.7733 11 32.96V54.64C11 56.7733 11.5333 58.4 12.6 59.52C13.72 60.64 15.3467 61.2 17.48 61.2C19.6133 61.2 21.1867 60.6133 22.2 59.44C23.2667 58.2667 23.8 56.4267 23.8 53.92V48.8H34.52V53.68C34.52 65.2 28.8667 70.96 17.56 70.96ZM72.1331 70H61.4131V27.36H51.9731L51.5731 54.56C51.4665 59.84 50.3198 63.7333 48.1331 66.24C45.9465 68.7467 42.5865 70 38.0531 70H34.6131V60.24H36.5331C38.2931 60.24 39.5731 59.7067 40.3731 58.64C41.2265 57.52 41.6798 55.7867 41.7331 53.44L42.0531 27.36H41.9731V17.52H72.1331V70ZM105.865 17.52V27.28H87.865V38.96H104.425V48.64H87.865V60.24H105.865V70H77.145V17.52H105.865ZM148.802 60.24V80.64H138.162V70H117.522V80.64H106.802V60.24H110.882C112.802 56.1333 113.815 50.5333 113.922 43.44L114.242 17.52H144.162V60.24H148.802ZM123.842 44.24C123.789 50.32 122.855 55.6533 121.042 60.24H133.442V27.36H124.082L123.842 44.24ZM183.378 17.52V19.12L170.898 60.88C169.085 66.96 165.085 70 158.898 70H151.458V60.24H157.458C158.258 60.24 158.898 60.1333 159.378 59.92C159.858 59.6533 160.285 59.2533 160.658 58.72L147.458 19.12V17.52H157.938L165.938 44.8L172.978 17.52H183.378ZM218.577 16.56C223.75 16.5067 227.884 17.8933 230.977 20.72C234.124 23.4933 235.697 27.2267 235.697 31.92V55.68C235.697 60.3733 234.15 64.1067 231.057 66.88C227.964 69.6 223.804 70.96 218.577 70.96C213.457 70.96 209.43 69.6 206.497 66.88C203.564 64.16 202.097 60.4267 202.097 55.68V48.64H195.537V70H184.817V17.52H195.537V38.88H202.097V31.92C202.097 27.1733 203.564 23.44 206.497 20.72C209.43 17.9467 213.457 16.56 218.577 16.56ZM224.977 32.64C224.977 30.6667 224.417 29.12 223.297 28C222.23 26.88 220.71 26.32 218.737 26.32C216.817 26.32 215.297 26.88 214.177 28C213.11 29.12 212.577 30.6667 212.577 32.64V55.04C212.577 56.96 213.11 58.48 214.177 59.6C215.244 60.6667 216.764 61.2 218.737 61.2C220.71 61.2 222.23 60.6667 223.297 59.6C224.417 58.48 224.977 56.96 224.977 55.04V32.64ZM299.993 60.24V80.64H289.353V70H240.473V17.52H251.193V60.16H262.553V17.52H273.273V60.16H284.633V17.52H295.353V60.24H299.993ZM313.328 17.52V48.24L325.328 17.52H336.128V70H325.648V39.28L313.728 70H302.848V17.52H313.328ZM351.641 17.52V48.24L363.641 17.52H374.441V70H363.961V39.28L352.041 70H341.161V17.52H351.641ZM357.961 13.04C354.441 13.04 351.667 12.1333 349.641 10.32C347.614 8.45333 346.601 5.89333 346.601 2.63999V0.959997H354.921V2.63999C354.921 3.38666 355.187 3.97333 355.721 4.4C356.254 4.77333 357.001 4.96 357.961 4.96C358.921 4.96 359.667 4.77333 360.201 4.4C360.734 3.97333 361.001 3.38666 361.001 2.63999V0.959997H369.321V2.63999C369.321 5.89333 368.307 8.45333 366.281 10.32C364.254 12.1333 361.481 13.04 357.961 13.04ZM422.311 43.36C424.444 44.4267 426.071 45.92 427.191 47.84C428.364 49.76 428.951 52.0533 428.951 54.72V56.32C428.951 60.5867 427.564 63.9467 424.791 66.4C422.071 68.8 418.311 70 413.511 70H395.911V17.52H412.631C417.431 17.52 421.164 18.6933 423.831 21.04C426.551 23.3867 427.911 26.6667 427.911 30.88V32.48C427.911 34.9333 427.431 37.0933 426.471 38.96C425.511 40.8267 424.124 42.2933 422.311 43.36ZM406.631 27.12V38.88H411.431C415.271 38.88 417.191 37.12 417.191 33.6V32.16C417.191 28.8 415.244 27.12 411.351 27.12H406.631ZM418.151 53.68C418.151 51.9733 417.644 50.6667 416.631 49.76C415.617 48.8 414.177 48.32 412.311 48.32H406.631V60.4H412.231C416.177 60.4 418.151 58.64 418.151 55.12V53.68ZM449.543 70.96C444.263 70.96 440.076 69.5733 436.983 66.8C433.889 63.9733 432.343 60.1867 432.343 55.44V32.08C432.343 27.3333 433.889 23.5733 436.983 20.8C440.076 17.9733 444.263 16.56 449.543 16.56C454.823 16.56 459.009 17.9733 462.103 20.8C465.196 23.5733 466.743 27.3333 466.743 32.08V55.44C466.743 60.1867 465.196 63.9733 462.103 66.8C459.009 69.5733 454.823 70.96 449.543 70.96ZM449.543 61.2C451.623 61.2 453.223 60.64 454.343 59.52C455.516 58.4 456.103 56.7733 456.103 54.64V32.96C456.103 30.8267 455.543 29.2 454.423 28.08C453.303 26.9067 451.676 26.32 449.543 26.32C447.463 26.32 445.863 26.9067 444.743 28.08C443.623 29.2 443.063 30.8267 443.063 32.96V54.64C443.063 56.7733 443.623 58.4 444.743 59.52C445.863 60.64 447.463 61.2 449.543 61.2ZM504.8 17.52V70H494.08V27.36H482.24V70H471.52V17.52H504.8ZM526.872 17.52C532.153 17.52 536.179 18.8533 538.953 21.52C541.726 24.1333 543.113 27.9733 543.113 33.04V34.64C543.113 39.76 541.726 43.6267 538.953 46.24C536.233 48.8533 532.206 50.16 526.872 50.16H520.553V70H509.833V17.52H526.872ZM526.073 40.4C528.153 40.4 529.726 39.9467 530.793 39.04C531.859 38.1333 532.393 36.6667 532.393 34.64V33.04C532.393 29.2 530.286 27.28 526.073 27.28H520.553V40.4H526.073ZM563.386 70.96C558.106 70.96 553.92 69.5733 550.826 66.8C547.733 63.9733 546.186 60.1867 546.186 55.44V32.08C546.186 27.3333 547.733 23.5733 550.826 20.8C553.92 17.9733 558.106 16.56 563.386 16.56C568.666 16.56 572.853 17.9733 575.946 20.8C579.04 23.5733 580.586 27.3333 580.586 32.08V55.44C580.586 60.1867 579.04 63.9733 575.946 66.8C572.853 69.5733 568.666 70.96 563.386 70.96ZM563.386 61.2C565.466 61.2 567.066 60.64 568.186 59.52C569.36 58.4 569.946 56.7733 569.946 54.64V32.96C569.946 30.8267 569.386 29.2 568.266 28.08C567.146 26.9067 565.52 26.32 563.386 26.32C561.306 26.32 559.706 26.9067 558.586 28.08C557.466 29.2 556.906 30.8267 556.906 32.96V54.64C556.906 56.7733 557.466 58.4 558.586 59.52C559.706 60.64 561.306 61.2 563.386 61.2ZM602.404 70.96C597.07 70.96 592.857 69.5733 589.764 66.8C586.67 64.0267 585.124 60.24 585.124 55.44V32.08C585.124 27.3333 586.67 23.5733 589.764 20.8C592.857 17.9733 597.07 16.56 602.404 16.56C608.11 16.56 612.35 18.0267 615.124 20.96C617.95 23.84 619.364 28.24 619.364 34.16V39.28H608.644V33.84C608.644 31.2267 608.137 29.3333 607.124 28.16C606.11 26.9333 604.51 26.32 602.324 26.32C600.19 26.32 598.564 26.88 597.444 28C596.377 29.12 595.844 30.7733 595.844 32.96V54.64C595.844 56.7733 596.377 58.4 597.444 59.52C598.564 60.64 600.19 61.2 602.324 61.2C604.457 61.2 606.03 60.6133 607.044 59.44C608.11 58.2667 608.644 56.4267 608.644 53.92V48.8H619.364V53.68C619.364 65.2 613.71 70.96 602.404 70.96ZM724.758 45.44V47.36L703.238 68.88H690.438V66.88L705.318 52.08H640.838V40.8H705.318L690.438 25.92V23.92H703.238L724.758 45.44Z" fill="white"/>
</svg>
