<svg width="318" height="57" viewBox="0 0 318 57" fill="none" xmlns="http://www.w3.org/2000/svg">
<path d="M11.3756 0.346932V32.9869L24.1256 0.346932H35.6006V56.1069H24.4656V23.4669L11.8006 56.1069H0.240611V0.346932H11.3756ZM70.0176 0.346932V10.7169H52.3376V56.1069H40.9476V0.346932H70.0176ZM90.6288 0.346932C96.2388 0.346932 100.517 1.7636 103.464 4.59693C106.41 7.3736 107.884 11.4536 107.884 16.8369V18.5369C107.884 23.9769 106.41 28.0853 103.464 30.8619C100.574 33.6386 96.2955 35.0269 90.6288 35.0269H83.9138V56.1069H72.5238V0.346932H90.6288ZM89.7788 24.6569C91.9888 24.6569 93.6605 24.1753 94.7938 23.2119C95.9271 22.2486 96.4938 20.6903 96.4938 18.5369V16.8369C96.4938 12.7569 94.2555 10.7169 89.7788 10.7169H83.9138V24.6569H89.7788ZM143.83 54.4069V56.1069H132.1L130.06 46.3319H117.225L115.185 56.1069H103.54V54.4069L116.97 0.346932H130.485L143.83 54.4069ZM128.02 36.5569L123.685 15.9869L119.35 36.5569H128.02ZM138.929 10.7169V0.346932H171.569V10.7169H160.944V56.1069H149.554V10.7169H138.929ZM185.449 0.346932V21.0019H192.164C197.831 21.0019 202.109 22.3903 204.999 25.1669C207.946 27.8869 209.419 31.9386 209.419 37.3219V39.7869C209.419 45.1703 207.974 49.2503 205.084 52.0269C202.194 54.7469 197.887 56.1069 192.164 56.1069H174.059V0.346932H185.449ZM191.314 45.9069C193.581 45.9069 195.252 45.3969 196.329 44.3769C197.462 43.3569 198.029 41.7986 198.029 39.7019V37.2369C198.029 33.2136 195.791 31.2019 191.314 31.2019H185.449V45.9069H191.314ZM317.599 30.0119V32.0519L294.734 54.9169H281.134V52.7919L296.944 37.0669H228.434V25.0819H296.944L281.134 9.27193V7.14693H294.734L317.599 30.0119Z" fill="white"/>
</svg>
